<?xml version="1.0" encoding="utf-8"?>
<svg version="1.1" id="Layer_1" xmlns="http://www.w3.org/2000/svg" xmlns:xlink="http://www.w3.org/1999/xlink"
  viewBox="0 0 130 130" style="background-color: white" stroke="black" fill="white"
  stroke-width="6">
  <g>
    <path id="ray" d="M 15 40 L 10 40" stroke-linecap="round" stroke-width="6" />
    <use xlink:href="#ray" transform="rotate(-45 40 40)" />
    <use xlink:href="#ray" transform="rotate(45 40 40)" />
    <use xlink:href="#ray" transform="rotate(90 40 40)" />
    <use xlink:href="#ray" transform="rotate(135 40 40)" />
    <circle cx="40" cy="40" r="15" />
  </g>
  <path d="M 40 80 C 20 80, 20 40, 45 45 C 45 20, 85 25, 85 45 C 115 40, 115 80, 95 80 z" />
  <g id="drop" transform="translate(-15)">
    <path d="M 58 105 A 9 9 0 1 0 72 105 A 55 55 0 0 1 65 90 A 55 55 0 0 1 58 105" stroke-width="1" fill="black" />

  </g>
  <use xlink:href="#drop" transform="translate(30)" />
</svg>