<?xml version="1.0" encoding="utf-8"?>
<svg version="1.1" id="Layer_1" xmlns="http://www.w3.org/2000/svg" xmlns:xlink="http://www.w3.org/1999/xlink"
  viewBox="0 0 130 130" width="80" height="80" stroke="black" fill="white" stroke-width="6">
  transform="translate(-15, -10)" />
  <g>
    <path id="ray" d="M 15 40 L 10 40" stroke-linecap="round" stroke-width="6" />
    <use xlink:href="#ray" transform="rotate(-45 40 40)" />
    <use xlink:href="#ray" transform="rotate(45 40 40)" />
    <use xlink:href="#ray" transform="rotate(90 40 40)" />
    <use xlink:href="#ray" transform="rotate(135 40 40)" />
    <circle cx="40" cy="40" r="15" />
  </g>
  <path d="M 40 80 C 20 80, 20 40, 45 45 C 45 20, 85 25, 85 45 C 115 40, 115 80, 95 80 z" />
  <!-- <path d=" M 0 0 h 130 v 130 h -130 v -130" fill="transparent" /> -->
  <path d="M 50 100 L 40 110 50 120 60 110 50 100" stroke-width="0" fill="black" />
  <g id="drop" transform="translate(15 0)">
    <circle cx="65" cy="110" r="10" fill="black" stroke-width="0" />
    <path d="M 56.7 108 L 65 90 L 73.3 108" stroke-linecap="round" stroke-linejoin="round" stroke-width="3"
      fill="black" />
  </g>
</svg>