<?xml version="1.0" encoding="utf-8"?>
<svg version="1.1" id="Layer_1" xmlns="http://www.w3.org/2000/svg" xmlns:xlink="http://www.w3.org/1999/xlink"
  viewBox="0 0 130 130" style="background-color: white" stroke="black" fill="white"
  stroke-width="6">
  <path d="M 40 80 C 20 80, 20 40, 45 45 C 45 20, 85 25, 85 45 C 115 40, 115 80, 95 80 z" />
  <path id="star" d="M 0 -10 L -2.9 -4 -9.5 -3.1 -4.7 1.5 -5.9 8.1 0 5 5.9 8.1 4.8 1.5 9.5 -3.1 2.9 -4 z"
    transform="translate(15 35)" stroke-width="4" />
  <use xlink:href="#star" transform="translate(25 -20)" />
  <g id="drop">
    <path d="M 58 105 A 9 9 0 1 0 72 105 A 55 55 0 0 1 65 90 A 55 55 0 0 1 58 105" stroke-width="1" fill="black" />

  </g>
</svg>