<?xml version="1.0" encoding="utf-8"?>
<svg version="1.1" id="Layer_1" xmlns="http://www.w3.org/2000/svg" xmlns:xlink="http://www.w3.org/1999/xlink"
  viewBox="0 0 100 100" width="80" height="80" style="background-color: white" stroke="black" fill="white"
  stroke-width="6" stroke-linecap="round">
  <path d="M 20 85 a40 40 0 1 1 60 0 z" stroke-linejoin="round" />
  <g stroke-width="4">
    <path d="M 50 20 v 7" transform="rotate(0 50 58)" />
    <path d="M 50 20 v 7" transform="rotate(30 50 58)" />
    <path d="M 50 20 v 7" transform="rotate(60 50 58)" />
    <path d="M 50 20 v 7" transform="rotate(90 50 58)" />
    <path d="M 50 20 v 7" transform="rotate(120 50 58)" />
    <path d="M 50 20 v 7" transform="rotate(-30 50 58)" />
    <path d="M 50 20 v 7" transform="rotate(-60 50 58)" />
    <path d="M 50 20 v 7" transform="rotate(-90 50 58)" />
    <path d="M 50 20 v 7" transform="rotate(-120 50 58)" />
  </g>
  <circle cx="50" cy="58" r="4" fill="black" />
  <path d="M50 58 l-15 -15" stroke-width="4" />
</svg>