<?xml version="1.0" encoding="utf-8"?>
<svg version="1.1" id="Layer_1" xmlns="http://www.w3.org/2000/svg" xmlns:xlink="http://www.w3.org/1999/xlink"
  viewBox="0 0 130 100" style="background-color: white" stroke="black" fill="white"
  stroke-width="6" stroke-linecap="round">
  <g transform="translate(0)">
    <path d="M 60 58 a20 20 0 1 1 -20 0 v -43 a10 10 0 0 1 20 0 v 43" stroke-linejoin="round" />
    <circle cx="50" cy="75.5" r="7" fill="black" /> 
    <path d="M50 72.3 v-40" stroke-linecap="butt" stroke-width="5"/>
    <g stroke-width="6">
      <path d="M 70 53 h 14" />
      <path d="M 70 43 h 5" />
      <path d="M 70 33 h 14" />
      <path d="M 70 23 h 5" />
      <path d="M 70 13 h 14" />
    </g>
  </g>
  <path d="M105 70 a10 10 0 1 1 16 10 L105 95 M105 70 a10 10 0 1 0 -16 10 L105 95" stroke-width="6"/>
</svg>